<svg width="33" height="30" viewBox="0 0 33 30" fill="none" xmlns="http://www.w3.org/2000/svg">
  <path d="M12.5125 0.369632L17.7613 0.0289257C18.0578 0.00968018 18.3554 0.0168995 18.6506 0.050498L23.4035 0.591444C23.938 0.652283 24.4592 0.798994 24.947 1.02592L28.1633 2.52214C28.8585 2.84555 29.47 3.32452 29.9505 3.92201L30.9294 5.13912C31.3238 5.6295 31.6221 6.18991 31.8086 6.79094L32.4018 8.7028C32.4847 8.96983 32.545 9.24334 32.5821 9.52045L32.9051 11.9302C32.968 12.4002 32.9638 12.8766 32.8926 13.3454L32.5263 15.7565L31.5748 19.4715C31.4727 19.8702 31.3218 20.2547 31.1254 20.6164L29.4862 23.6359C29.3093 23.9618 29.0967 24.267 28.8524 24.5459L26.7947 26.8939C26.2055 27.5662 25.4469 28.0682 24.5978 28.3478L20.5137 29.6923C19.8964 29.8955 19.2455 29.9764 18.5973 29.9306L11.1481 29.4035C10.5485 29.3611 9.96152 29.2109 9.41522 28.9602L6.72339 27.7246C6.33051 27.5443 5.96267 27.3138 5.62908 27.0388L3.23528 25.0659C2.7324 24.6514 2.31539 24.1426 2.00772 23.5681L0.592359 20.9255C0.203481 20.1994 0 19.3885 0 18.5648V15.5086C0 15.259 0.0186864 15.0098 0.0559024 14.763L0.574859 11.3218C0.681603 10.6139 0.939092 9.93725 1.32991 9.33752L4.60729 4.30822C5.15684 3.46492 5.94811 2.80711 6.8776 2.42085L10.9177 0.74194C11.4252 0.531024 11.9641 0.405234 12.5125 0.369632Z" fill="#AEF49B" fill-opacity="0.8"/>
  <path d="M19.7981 9.33472V12.1558" stroke="black" stroke-linecap="round"/>
  <path d="M12.2019 9.33472V12.1558" stroke="black" stroke-linecap="round"/>
  <path d="M11.8965 19.6426C12.0103 20.2758 12.3526 20.8402 12.9964 21.2359C13.6151 21.6163 14.3086 21.9548 15.088 22.0703C15.5977 22.1458 16.2047 22.1145 16.7128 22.0462C17.1698 21.9848 17.473 21.878 17.8312 21.6489C18.3864 21.2939 18.8967 20.8908 19.3386 20.4466C19.4936 20.2909 19.6426 20.1409 19.7409 19.9571C19.7963 19.8534 19.8965 19.53 19.8965 19.6426" stroke="black" stroke-linecap="round"/>
  <rect x="7.07202" y="12.5435" width="4.28571" height="3.38531" rx="1.69266" fill="#9EE467"/>
  <rect x="20.2729" y="12.5435" width="4.28571" height="3.38531" rx="1.69266" fill="#9EE467"/>
  </svg>
  