<svg width="312" height="66" viewBox="0 0 312 66" fill="none" xmlns="http://www.w3.org/2000/svg">
<rect x="103.5" width="105" height="6" fill="#FF000F" fill-opacity="0.17"/>
<rect x="203.5" y="35" width="105" height="5" fill="#FF000F" fill-opacity="0.4"/>
<rect x="4.6557" y="19" width="102.425" height="5" fill="#FFA5AB"/>
<rect x="107.314" y="6" width="96.3728" height="57" fill="#FFEEEE"/>
<rect x="203.686" y="40" width="99.9421" height="23" fill="#FFC3C3"/>
<rect x="7.37152" y="24" width="99.9421" height="39" fill="#FFDBDB"/>
<rect x="0.5" y="59" width="311" height="7" fill="#FFBBBF"/>
<path d="M155.88 21.72C156.067 21.5867 156.32 21.6133 156.64 21.8C156.987 21.96 157.24 22.1867 157.4 22.48C157.507 22.6667 157.56 22.8133 157.56 22.92C157.56 23.0267 157.52 23.2933 157.44 23.72C157.307 24.3067 157.24 24.68 157.24 24.84C157.267 24.9733 157.4 25.2133 157.64 25.56C157.8 25.8533 157.893 26.0533 157.92 26.16C157.947 26.24 157.933 26.3867 157.88 26.6C157.8 26.8667 157.813 27.12 157.92 27.36C158.053 27.6533 158.12 28.0667 158.12 28.6C158.12 29.1333 158.067 29.5333 157.96 29.8C157.853 30.04 157.8 30.2133 157.8 30.32C157.8 30.4267 157.84 30.68 157.92 31.08C158.053 31.6133 158.093 32 158.04 32.24C157.933 32.72 157.88 33.0267 157.88 33.16C157.907 33.2933 157.987 33.4533 158.12 33.64C158.547 34.1733 158.533 34.8533 158.08 35.68C157.733 36.3467 157.547 36.8667 157.52 37.24C157.493 37.5867 157.64 37.9067 157.96 38.2C158.227 38.44 158.347 38.6 158.32 38.68C158.293 38.7333 158.107 38.8 157.76 38.88C157.333 38.9867 157.067 39.1733 156.96 39.44C156.853 39.7067 156.947 39.96 157.24 40.2C157.427 40.3867 157.627 40.56 157.84 40.72C158.08 40.9333 158.2 41.1467 158.2 41.36C158.2 41.6 158.253 41.8933 158.36 42.24C158.52 42.8 158.493 43.1867 158.28 43.4C158.093 43.6133 157.68 43.72 157.04 43.72C156.4 43.6933 155.933 43.56 155.64 43.32C155.347 43.0533 155.213 42.6533 155.24 42.12C155.267 41.7733 155.28 40.9733 155.28 39.72C155.28 39.48 155.28 38.9733 155.28 38.2C155.28 37.8533 155.28 37.04 155.28 35.76C155.253 34.9333 155.253 34.44 155.28 34.28C155.307 34.0933 155.387 33.9067 155.52 33.72C155.707 33.5067 155.8 33.3067 155.8 33.12C155.8 32.9067 155.72 32.36 155.56 31.48C155.427 30.6267 155.373 30.12 155.4 29.96C155.453 29.7733 155.653 29.6533 156 29.6C156.293 29.52 156.4 29.3333 156.32 29.04C156.267 28.7467 156.093 28.6 155.8 28.6C155.373 28.6 155.227 28.36 155.36 27.88C155.44 27.6133 155.48 27.2267 155.48 26.72C155.48 25.8133 155.333 25.2267 155.04 24.96C154.747 24.6933 154.373 24.7867 153.92 25.24C153.653 25.5333 153.48 25.68 153.4 25.68C153.347 25.68 153.107 25.8667 152.68 26.24C152.227 26.64 151.88 26.8933 151.64 27C151.347 27.16 151.133 27.3333 151 27.52C150.84 27.7333 150.587 27.96 150.24 28.2L149.72 28.64L149.4 28.24C149.16 28 148.92 27.8267 148.68 27.72C148.147 27.56 147.92 27.3333 148 27.04C148.08 26.7467 148.413 26.6 149 26.6C149.24 26.6 149.52 26.44 149.84 26.12C150.187 25.7467 150.467 25.4933 150.68 25.36C150.92 25.2 151.093 25.0533 151.2 24.92C151.253 24.8133 151.4 24.7333 151.64 24.68C151.827 24.6267 152 24.5067 152.16 24.32C152.32 24.1067 152.507 23.96 152.72 23.88C152.96 23.8 153.133 23.6267 153.24 23.36C153.427 22.96 153.72 22.6 154.12 22.28C154.52 21.96 154.88 21.8 155.2 21.8C155.547 21.8 155.773 21.7733 155.88 21.72Z" fill="black"/>
<path d="M51.78 32.34C52.38 32.24 53.11 32.31 53.97 32.55C54.83 32.77 55.47 33.07 55.89 33.45C56.07 33.61 56.25 33.73 56.43 33.81C56.77 33.95 57.08 34.21 57.36 34.59C57.66 34.97 57.84 35.35 57.9 35.73C57.94 35.97 58.01 36.17 58.11 36.33C58.25 36.55 58.32 36.83 58.32 37.17C58.34 37.51 58.3 37.77 58.2 37.95C58.08 38.15 58 38.37 57.96 38.61C57.94 38.79 57.91 38.9 57.87 38.94C57.85 38.98 57.79 39.01 57.69 39.03C57.47 39.09 57.35 39.21 57.33 39.39C57.31 39.57 57.41 39.71 57.63 39.81C57.99 39.99 58.14 40.19 58.08 40.41C58.06 40.45 58.01 40.48 57.93 40.5C57.77 40.54 57.66 40.66 57.6 40.86C57.54 41.04 57.49 41.42 57.45 42C57.41 42.64 57.35 43.06 57.27 43.26C57.21 43.46 57.06 43.59 56.82 43.65C56.58 43.71 56.41 43.81 56.31 43.95C56.23 44.09 56.17 44.37 56.13 44.79C56.11 45.19 56.06 45.47 55.98 45.63C55.9 45.77 55.74 45.92 55.5 46.08C55.28 46.24 55.15 46.41 55.11 46.59C55.07 46.77 55 46.97 54.9 47.19C54.74 47.49 54.69 47.68 54.75 47.76C54.83 47.82 55.04 47.82 55.38 47.76C56.26 47.56 56.86 47.46 57.18 47.46C57.52 47.46 57.85 47.55 58.17 47.73C58.35 47.83 58.49 47.88 58.59 47.88C58.71 47.86 59.02 47.76 59.52 47.58C60.4 47.3 61.23 47.23 62.01 47.37C62.81 47.49 63.39 47.8 63.75 48.3C63.89 48.5 63.97 48.63 63.99 48.69C64.01 48.73 63.98 48.79 63.9 48.87C63.8 48.97 63.65 49.07 63.45 49.17C63.25 49.27 63.09 49.32 62.97 49.32C62.81 49.32 62.6 49.35 62.34 49.41C61.96 49.53 61.55 49.6 61.11 49.62C60.69 49.62 60.4 49.57 60.24 49.47C59.88 49.25 59.43 49.27 58.89 49.53C58.75 49.61 58.61 49.66 58.47 49.68C58.35 49.68 58.04 49.66 57.54 49.62C56.98 49.58 56.62 49.57 56.46 49.59C56.3 49.61 56.11 49.69 55.89 49.83C55.69 49.97 55.39 50.03 54.99 50.01C54.37 49.99 53.88 49.99 53.52 50.01C53.32 50.03 53.18 50.03 53.1 50.01C53.04 49.99 52.95 49.92 52.83 49.8C52.71 49.66 52.61 49.59 52.53 49.59C52.47 49.59 52.32 49.63 52.08 49.71C51.14 50.09 50.57 50.09 50.37 49.71C50.11 49.19 49.83 49.09 49.53 49.41C49.11 49.85 48.86 49.94 48.78 49.68C48.74 49.6 48.74 49.5 48.78 49.38C48.82 49.1 48.98 48.86 49.26 48.66C49.56 48.46 49.87 48.38 50.19 48.42C50.39 48.44 50.52 48.44 50.58 48.42C50.64 48.4 50.72 48.33 50.82 48.21C51.04 47.95 51.21 47.78 51.33 47.7C51.45 47.6 51.65 47.51 51.93 47.43C52.29 47.33 52.51 47.25 52.59 47.19C52.67 47.13 52.73 46.99 52.77 46.77C52.83 46.55 52.94 46.37 53.1 46.23C53.26 46.09 53.35 45.91 53.37 45.69C53.41 45.45 53.47 45.28 53.55 45.18C53.63 45.08 53.82 44.92 54.12 44.7C54.74 44.28 55.11 43.85 55.23 43.41C55.29 43.19 55.39 42.94 55.53 42.66C55.67 42.38 55.75 42 55.77 41.52C55.81 41.04 55.88 40.72 55.98 40.56C56.08 40.38 56.12 40.03 56.1 39.51C56.06 38.93 56.09 38.32 56.19 37.68C56.27 37.08 56.27 36.62 56.19 36.3C56.11 35.94 56.07 35.6 56.07 35.28C56.07 35.06 56.05 34.92 56.01 34.86C55.99 34.78 55.92 34.68 55.8 34.56C55.54 34.28 55.06 34.08 54.36 33.96C53.66 33.82 53.08 33.81 52.62 33.93C52.36 34.01 52.04 34.07 51.66 34.11C51.34 34.15 51.1 34.23 50.94 34.35C50.78 34.47 50.63 34.69 50.49 35.01C50.33 35.33 50.17 35.51 50.01 35.55C49.85 35.57 49.7 35.44 49.56 35.16C49.44 34.96 49.4 34.78 49.44 34.62C49.48 34.46 49.61 34.28 49.83 34.08C50.07 33.84 50.25 33.57 50.37 33.27C50.55 32.77 51.02 32.46 51.78 32.34Z" fill="black"/>
<path d="M255.9 42.897C256.039 42.8337 256.426 42.8083 257.059 42.821C257.692 42.821 258.091 42.8527 258.256 42.916C258.661 43.0553 258.984 43.258 259.225 43.524C259.466 43.79 259.561 44.056 259.51 44.322C259.472 44.55 259.485 44.6893 259.548 44.74C259.675 44.8413 259.744 44.9807 259.757 45.158C259.782 45.3353 259.738 45.4747 259.624 45.576C259.523 45.6647 259.447 45.7913 259.396 45.956C259.32 46.222 259.238 46.412 259.149 46.526C259.073 46.64 258.959 46.7223 258.807 46.773C258.465 46.887 258.522 47.0643 258.978 47.305C259.447 47.5837 259.7 47.837 259.738 48.065C259.763 48.1917 259.871 48.35 260.061 48.54C260.403 48.8567 260.606 49.1353 260.669 49.376C260.72 49.5407 260.77 49.6863 260.821 49.813C260.872 49.9523 260.884 50.0727 260.859 50.174C260.834 50.3007 260.84 50.421 260.878 50.535C260.941 50.6743 260.954 50.915 260.916 51.257C260.878 51.599 260.821 51.8143 260.745 51.903C260.669 51.979 260.637 52.131 260.65 52.359C260.65 52.549 260.612 52.701 260.536 52.815C260.473 52.929 260.302 53.119 260.023 53.385C259.808 53.5877 259.637 53.689 259.51 53.689C259.155 53.689 258.839 53.8157 258.56 54.069C258.459 54.183 258.383 54.2527 258.332 54.278C258.294 54.2907 258.231 54.2907 258.142 54.278C258.015 54.2527 257.901 54.2653 257.8 54.316C257.635 54.4047 257.477 54.392 257.325 54.278C257.224 54.202 257.04 54.164 256.774 54.164C256.495 54.164 256.305 54.126 256.204 54.05C256.103 53.974 255.976 53.898 255.824 53.822C255.558 53.708 255.406 53.4927 255.368 53.176C255.343 52.9607 255.431 52.834 255.634 52.796C255.849 52.7453 256.191 52.7833 256.66 52.91C256.913 52.986 257.103 53.005 257.23 52.967C257.357 52.929 257.515 52.91 257.705 52.91C257.857 52.91 257.971 52.8847 258.047 52.834C258.136 52.7833 258.351 52.6187 258.693 52.34C258.972 52.0993 259.193 51.7827 259.358 51.39C259.535 50.9847 259.586 50.649 259.51 50.383C259.485 50.2437 259.447 50.0093 259.396 49.68C259.295 49.0467 259.105 48.6413 258.826 48.464C258.699 48.388 258.598 48.3183 258.522 48.255C258.421 48.179 258.148 48.0967 257.705 48.008C257.426 47.9573 257.167 48.0143 256.926 48.179C256.787 48.2677 256.451 48.3057 255.919 48.293C255.4 48.2803 255.058 48.2233 254.893 48.122C254.513 47.9067 254.386 47.6787 254.513 47.438C254.64 47.1847 254.956 47.0453 255.463 47.02C255.78 47.0073 255.963 46.982 256.014 46.944C256.153 46.8553 256.464 46.792 256.945 46.754C257.059 46.7413 257.141 46.678 257.192 46.564C257.255 46.4373 257.388 46.3043 257.591 46.165C257.819 46.0003 258.022 45.8103 258.199 45.595C258.44 45.329 258.63 45.1263 258.769 44.987C258.934 44.8097 259.016 44.6513 259.016 44.512C259.016 44.3727 258.927 44.208 258.75 44.018C258.687 43.9547 258.636 43.8787 258.598 43.79C258.547 43.7013 258.478 43.6443 258.389 43.619C258.313 43.6063 258.142 43.562 257.876 43.486C257.623 43.4227 257.3 43.391 256.907 43.391C256.514 43.3783 256.248 43.3467 256.109 43.296C256.02 43.2707 255.951 43.2643 255.9 43.277C255.862 43.277 255.799 43.3087 255.71 43.372C255.431 43.562 255.102 43.619 254.722 43.543C254.469 43.4923 254.418 43.3973 254.57 43.258C254.937 42.9413 255.267 42.8273 255.558 42.916C255.685 42.9413 255.799 42.935 255.9 42.897Z" fill="black"/>
</svg>
