<svg width="393" height="292" viewBox="0 0 393 292" fill="none" xmlns="http://www.w3.org/2000/svg">
<path d="M93.5 182C52 199 34.5 198.62 0 182V0H392.5V182C392.5 182 334.5 178.687 320 182C305.5 185.313 306.982 183.919 291.5 191C291.5 191 280 198 272 208.5C264 219 265.5 226 265.5 237.5C265.5 249 266 259 269 265C271.385 269.77 274.5 272 274.5 279C274.5 286 266 291.5 260 291.5C253.773 291.5 247 285.5 247 280C247 273.5 248.079 273 252.5 266C256.921 259 257.858 249.638 258 237.5C258.151 224.594 257.5 216.5 252.5 209.5C247.5 202.5 245 198.5 236 193C227 187.5 219 185.5 201.5 182C184 178.5 135 165 93.5 182Z" fill="#FDD441"/>
</svg>
