<svg width="20" height="21" viewBox="0 0 20 21" fill="none" xmlns="http://www.w3.org/2000/svg">
<path d="M9.16667 10.5C8.25 10.5 7.46875 10.1736 6.82292 9.52084C6.17708 8.86807 5.85417 8.08334 5.85417 7.16668C5.85417 6.25001 6.17708 5.46529 6.82292 4.81251C7.46875 4.15973 8.25 3.83334 9.16667 3.83334C10.0833 3.83334 10.8681 4.15973 11.5208 4.81251C12.1736 5.46529 12.5 6.25001 12.5 7.16668C12.5 8.08334 12.1736 8.86807 11.5208 9.52084C10.8681 10.1736 10.0833 10.5 9.16667 10.5ZM14.8958 17.625L14.3542 16.9792C14.2847 16.9097 14.2361 16.8264 14.2083 16.7292C14.1806 16.632 14.1667 16.5347 14.1667 16.4375V13.6875C13.6806 13.507 13.2812 13.2049 12.9688 12.7813C12.6562 12.3576 12.5 11.875 12.5 11.3333C12.5 10.6389 12.7431 10.0486 13.2292 9.56251C13.7153 9.0764 14.3056 8.83334 15 8.83334C15.6944 8.83334 16.2847 9.0764 16.7708 9.56251C17.2569 10.0486 17.5 10.6389 17.5 11.3333C17.5 11.875 17.3438 12.3576 17.0312 12.7813C16.7188 13.2049 16.3194 13.507 15.8333 13.6875V13.8333L16.375 14.375C16.4583 14.4583 16.5 14.5556 16.5 14.6667C16.5 14.7778 16.4583 14.875 16.375 14.9583L15.8333 15.5L16.3958 16.0417C16.4653 16.1111 16.5035 16.2049 16.5104 16.3229C16.5174 16.441 16.4861 16.5417 16.4167 16.625L15.5417 17.625C15.4583 17.7222 15.3507 17.7708 15.2188 17.7708C15.0868 17.7708 14.9792 17.7222 14.8958 17.625ZM4.16667 17.1667C3.70833 17.1667 3.31597 17.0035 2.98958 16.6771C2.66319 16.3507 2.5 15.9583 2.5 15.5V14.8542C2.5 14.382 2.61806 13.9445 2.85417 13.5417C3.09028 13.1389 3.41667 12.8333 3.83333 12.625C4.54167 12.2639 5.34375 11.9583 6.23958 11.7083C7.13542 11.4583 8.11111 11.3333 9.16667 11.3333C9.45833 11.3333 9.74306 11.3438 10.0208 11.3646C10.2986 11.3854 10.5764 11.4167 10.8542 11.4583C10.8819 12.0833 11.0312 12.6806 11.3021 13.25C11.5729 13.8195 11.9722 14.2847 12.5 14.6458V17.1667H4.16667ZM15 12.5833C15.3472 12.5833 15.6424 12.4618 15.8854 12.2188C16.1285 11.9757 16.25 11.6806 16.25 11.3333C16.25 10.9861 16.1285 10.691 15.8854 10.4479C15.6424 10.2049 15.3472 10.0833 15 10.0833C14.6528 10.0833 14.3576 10.2049 14.1146 10.4479C13.8715 10.691 13.75 10.9861 13.75 11.3333C13.75 11.6806 13.8715 11.9757 14.1146 12.2188C14.3576 12.4618 14.6528 12.5833 15 12.5833Z" fill="black"/>
</svg>
