<svg width="25" height="25" viewBox="0 0 25 25" fill="none" xmlns="http://www.w3.org/2000/svg">
  <g clip-path="url(#clip0_553_414)">
  <path d="M19.5 4.5H18.5V2.5H16.5V4.5H8.5V2.5H6.5V4.5H5.5C4.39 4.5 3.51 5.4 3.51 6.5L3.5 20.5C3.5 21.6 4.39 22.5 5.5 22.5H19.5C20.6 22.5 21.5 21.6 21.5 20.5V6.5C21.5 5.4 20.6 4.5 19.5 4.5ZM19.5 20.5H5.5V10.5H19.5V20.5ZM9.5 14.5H7.5V12.5H9.5V14.5ZM13.5 14.5H11.5V12.5H13.5V14.5ZM17.5 14.5H15.5V12.5H17.5V14.5ZM9.5 18.5H7.5V16.5H9.5V18.5ZM13.5 18.5H11.5V16.5H13.5V18.5ZM17.5 18.5H15.5V16.5H17.5V18.5Z" fill="#505050"/>
  </g>
  <defs>
  <clipPath id="clip0_553_414">
  <rect width="24" height="24" fill="white" transform="translate(0.5 0.5)"/>
  </clipPath>
  </defs>
  </svg>
  