<svg width="25" height="25" viewBox="0 0 25 25" fill="none" xmlns="http://www.w3.org/2000/svg">
  <path d="M9.74995 22.5L9.34995 19.3C9.13328 19.2167 8.92912 19.1167 8.73745 19C8.54578 18.8833 8.35828 18.7583 8.17495 18.625L5.19995 19.875L2.44995 15.125L5.02495 13.175C5.00828 13.0583 4.99995 12.9458 4.99995 12.8375V12.1625C4.99995 12.0542 5.00828 11.9417 5.02495 11.825L2.44995 9.875L5.19995 5.125L8.17495 6.375C8.35828 6.24167 8.54995 6.11667 8.74995 6C8.94995 5.88333 9.14995 5.78333 9.34995 5.7L9.74995 2.5H15.25L15.65 5.7C15.8666 5.78333 16.0708 5.88333 16.2625 6C16.4541 6.11667 16.6416 6.24167 16.825 6.375L19.8 5.125L22.55 9.875L19.975 11.825C19.9916 11.9417 20 12.0542 20 12.1625V12.8375C20 12.9458 19.9833 13.0583 19.95 13.175L22.525 15.125L19.775 19.875L16.825 18.625C16.6416 18.7583 16.45 18.8833 16.25 19C16.05 19.1167 15.85 19.2167 15.65 19.3L15.25 22.5H9.74995ZM11.5 20.5H13.475L13.825 17.85C14.3416 17.7167 14.8208 17.5208 15.2625 17.2625C15.7041 17.0042 16.1083 16.6917 16.475 16.325L18.95 17.35L19.925 15.65L17.775 14.025C17.8583 13.7917 17.9166 13.5458 17.95 13.2875C17.9833 13.0292 18 12.7667 18 12.5C18 12.2333 17.9833 11.9708 17.95 11.7125C17.9166 11.4542 17.8583 11.2083 17.775 10.975L19.925 9.35L18.95 7.65L16.475 8.7C16.1083 8.31667 15.7041 7.99583 15.2625 7.7375C14.8208 7.47917 14.3416 7.28333 13.825 7.15L13.5 4.5H11.525L11.175 7.15C10.6583 7.28333 10.1791 7.47917 9.73745 7.7375C9.29578 7.99583 8.89162 8.30833 8.52495 8.675L6.04995 7.65L5.07495 9.35L7.22495 10.95C7.14162 11.2 7.08328 11.45 7.04995 11.7C7.01662 11.95 6.99995 12.2167 6.99995 12.5C6.99995 12.7667 7.01662 13.025 7.04995 13.275C7.08328 13.525 7.14162 13.775 7.22495 14.025L5.07495 15.65L6.04995 17.35L8.52495 16.3C8.89162 16.6833 9.29578 17.0042 9.73745 17.2625C10.1791 17.5208 10.6583 17.7167 11.175 17.85L11.5 20.5ZM12.55 16C13.5166 16 14.3416 15.6583 15.025 14.975C15.7083 14.2917 16.05 13.4667 16.05 12.5C16.05 11.5333 15.7083 10.7083 15.025 10.025C14.3416 9.34167 13.5166 9 12.55 9C11.5666 9 10.7375 9.34167 10.0625 10.025C9.38745 10.7083 9.04995 11.5333 9.04995 12.5C9.04995 13.4667 9.38745 14.2917 10.0625 14.975C10.7375 15.6583 11.5666 16 12.55 16Z" fill="#505050"/>
  </svg>
  