<svg width="12" height="13" viewBox="0 0 12 13" fill="none" xmlns="http://www.w3.org/2000/svg">
<g clip-path="url(#clip0_439_3944)">
<path d="M9.5 2.16668H9V1.08334H8V2.16668H4V1.08334H3V2.16668H2.5C1.945 2.16668 1.505 2.65418 1.505 3.25001L1.5 10.8333C1.5 11.4292 1.945 11.9167 2.5 11.9167H9.5C10.05 11.9167 10.5 11.4292 10.5 10.8333V3.25001C10.5 2.65418 10.05 2.16668 9.5 2.16668ZM9.5 10.8333H2.5V5.41668H9.5V10.8333ZM4.5 7.58334H3.5V6.50001H4.5V7.58334ZM6.5 7.58334H5.5V6.50001H6.5V7.58334ZM8.5 7.58334H7.5V6.50001H8.5V7.58334ZM4.5 9.75001H3.5V8.66668H4.5V9.75001ZM6.5 9.75001H5.5V8.66668H6.5V9.75001ZM8.5 9.75001H7.5V8.66668H8.5V9.75001Z" fill="white"/>
</g>
<defs>
<clipPath id="clip0_439_3944">
<rect width="12" height="13" fill="white"/>
</clipPath>
</defs>
</svg>
