<svg width="25" height="25" viewBox="0 0 25 25" fill="none" xmlns="http://www.w3.org/2000/svg">
  <path d="M6.5 20.5C5.95 20.5 5.47933 20.3043 5.088 19.913C4.696 19.521 4.5 19.05 4.5 18.5V11.5C4.5 10.95 4.696 10.479 5.088 10.087C5.47933 9.69567 5.95 9.5 6.5 9.5C7.05 9.5 7.52067 9.69567 7.912 10.087C8.304 10.479 8.5 10.95 8.5 11.5V18.5C8.5 19.05 8.304 19.521 7.912 19.913C7.52067 20.3043 7.05 20.5 6.5 20.5ZM12.5 20.5C11.95 20.5 11.4793 20.3043 11.088 19.913C10.696 19.521 10.5 19.05 10.5 18.5V6.5C10.5 5.95 10.696 5.47933 11.088 5.088C11.4793 4.696 11.95 4.5 12.5 4.5C13.05 4.5 13.521 4.696 13.913 5.088C14.3043 5.47933 14.5 5.95 14.5 6.5V18.5C14.5 19.05 14.3043 19.521 13.913 19.913C13.521 20.3043 13.05 20.5 12.5 20.5ZM18.5 20.5C17.95 20.5 17.479 20.3043 17.087 19.913C16.6957 19.521 16.5 19.05 16.5 18.5V15.5C16.5 14.95 16.6957 14.479 17.087 14.087C17.479 13.6957 17.95 13.5 18.5 13.5C19.05 13.5 19.521 13.6957 19.913 14.087C20.3043 14.479 20.5 14.95 20.5 15.5V18.5C20.5 19.05 20.3043 19.521 19.913 19.913C19.521 20.3043 19.05 20.5 18.5 20.5Z" fill="#505050"/>
  </svg>
  