<svg width="20" height="21" viewBox="0 0 20 21" fill="none" xmlns="http://www.w3.org/2000/svg">
<g clip-path="url(#clip0_339_2853)">
<path d="M10 14.6667C10.9167 14.6667 11.6667 13.9167 11.6667 13C11.6667 12.0833 10.9167 11.3333 10 11.3333C9.08333 11.3333 8.33333 12.0833 8.33333 13C8.33333 13.9167 9.08333 14.6667 10 14.6667ZM15 7.16666H14.1667V5.49999C14.1667 3.19999 12.3 1.33333 10 1.33333C7.7 1.33333 5.83333 3.19999 5.83333 5.49999V7.16666H5C4.08333 7.16666 3.33333 7.91666 3.33333 8.83333V17.1667C3.33333 18.0833 4.08333 18.8333 5 18.8333H15C15.9167 18.8333 16.6667 18.0833 16.6667 17.1667V8.83333C16.6667 7.91666 15.9167 7.16666 15 7.16666ZM7.41667 5.49999C7.41667 4.07499 8.575 2.91666 10 2.91666C11.425 2.91666 12.5833 4.07499 12.5833 5.49999V7.16666H7.41667V5.49999ZM15 17.1667H5V8.83333H15V17.1667Z" fill="black"/>
</g>
<defs>
<clipPath id="clip0_339_2853">
<rect width="20" height="20" fill="white" transform="translate(0 0.5)"/>
</clipPath>
</defs>
</svg>
