<svg width="14" height="16" viewBox="0 0 14 16" fill="none" xmlns="http://www.w3.org/2000/svg">
<path d="M4.08333 6.10416V4.84027H12.25V6.10416H4.08333ZM4.08333 8.63194V7.36805H12.25V8.63194H4.08333ZM4.08333 11.1597V9.89583H12.25V11.1597H4.08333ZM2.33333 6.10416C2.16806 6.10416 2.02951 6.0436 1.91771 5.92248C1.8059 5.80135 1.75 5.65127 1.75 5.47222C1.75 5.29316 1.8059 5.14308 1.91771 5.02196C2.02951 4.90083 2.16806 4.84027 2.33333 4.84027C2.49861 4.84027 2.63715 4.90083 2.74896 5.02196C2.86076 5.14308 2.91667 5.29316 2.91667 5.47222C2.91667 5.65127 2.86076 5.80135 2.74896 5.92248C2.63715 6.0436 2.49861 6.10416 2.33333 6.10416ZM2.33333 8.63194C2.16806 8.63194 2.02951 8.57138 1.91771 8.45025C1.8059 8.32913 1.75 8.17904 1.75 7.99999C1.75 7.82094 1.8059 7.67086 1.91771 7.54973C2.02951 7.42861 2.16806 7.36805 2.33333 7.36805C2.49861 7.36805 2.63715 7.42861 2.74896 7.54973C2.86076 7.67086 2.91667 7.82094 2.91667 7.99999C2.91667 8.17904 2.86076 8.32913 2.74896 8.45025C2.63715 8.57138 2.49861 8.63194 2.33333 8.63194ZM2.33333 11.1597C2.16806 11.1597 2.02951 11.0992 1.91771 10.978C1.8059 10.8569 1.75 10.7068 1.75 10.5278C1.75 10.3487 1.8059 10.1986 1.91771 10.0775C2.02951 9.95639 2.16806 9.89583 2.33333 9.89583C2.49861 9.89583 2.63715 9.95639 2.74896 10.0775C2.86076 10.1986 2.91667 10.3487 2.91667 10.5278C2.91667 10.7068 2.86076 10.8569 2.74896 10.978C2.63715 11.0992 2.49861 11.1597 2.33333 11.1597Z" fill="white"/>
</svg>
