<svg width="25" height="25" viewBox="0 0 25 25" fill="none" xmlns="http://www.w3.org/2000/svg">
  <path d="M13 20.5C12.6964 20.5 12.4421 20.3971 12.2371 20.1914C12.0314 19.9864 11.9286 19.7321 11.9286 19.4286V14.0714H6.57143C6.26786 14.0714 6.01321 13.9686 5.8075 13.7629C5.6025 13.5579 5.5 13.3036 5.5 13C5.5 12.6964 5.6025 12.4418 5.8075 12.2361C6.01321 12.0311 6.26786 11.9286 6.57143 11.9286H11.9286V6.57143C11.9286 6.26786 12.0314 6.01321 12.2371 5.8075C12.4421 5.6025 12.6964 5.5 13 5.5C13.3036 5.5 13.5582 5.6025 13.7639 5.8075C13.9689 6.01321 14.0714 6.26786 14.0714 6.57143V11.9286H19.4286C19.7321 11.9286 19.9864 12.0311 20.1914 12.2361C20.3971 12.4418 20.5 12.6964 20.5 13C20.5 13.3036 20.3971 13.5579 20.1914 13.7629C19.9864 13.9686 19.7321 14.0714 19.4286 14.0714H14.0714V19.4286C14.0714 19.7321 13.9689 19.9864 13.7639 20.1914C13.5582 20.3971 13.3036 20.5 13 20.5Z" fill="#505050"/>
  </svg>
  