<svg width="20" height="21" viewBox="0 0 20 21" fill="none" xmlns="http://www.w3.org/2000/svg">
<g clip-path="url(#clip0_339_2548)">
<path d="M10.8333 3C6.69159 3 3.33325 6.35833 3.33325 10.5H0.833252L4.16659 13.8333L7.49992 10.5H4.99992C4.99992 7.28333 7.61659 4.66667 10.8333 4.66667C14.0499 4.66667 16.6666 7.28333 16.6666 10.5C16.6666 13.7167 14.0499 16.3333 10.8333 16.3333C9.24992 16.3333 7.81659 15.7 6.76658 14.675L5.58325 15.85C6.93325 17.175 8.79158 18 10.8333 18C14.9749 18 18.3333 14.6417 18.3333 10.5C18.3333 6.35833 14.9749 3 10.8333 3ZM12.4999 9.66667V8.83333C12.4999 7.91667 11.7499 7.16667 10.8333 7.16667C9.91658 7.16667 9.16658 7.91667 9.16658 8.83333V9.66667C8.70825 9.66667 8.33325 10.0417 8.33325 10.5V13C8.33325 13.4583 8.70825 13.8333 9.16658 13.8333H12.4999C12.9583 13.8333 13.3333 13.4583 13.3333 13V10.5C13.3333 10.0417 12.9583 9.66667 12.4999 9.66667ZM11.6666 9.66667H9.99992V8.83333C9.99992 8.375 10.3749 8 10.8333 8C11.2916 8 11.6666 8.375 11.6666 8.83333V9.66667Z" fill="black"/>
</g>
<defs>
<clipPath id="clip0_339_2548">
<rect width="20" height="20" fill="white" transform="translate(0 0.5)"/>
</clipPath>
</defs>
</svg>
