<svg width="44" height="42" viewBox="0 0 44 42" fill="none" xmlns="http://www.w3.org/2000/svg">
<path d="M16.4439 0.533805L23.8081 0.0318818C24.1193 0.0106738 24.4317 0.018626 24.7414 0.0556343L31.4401 0.856169C31.9966 0.922663 32.5378 1.08222 33.0413 1.32817L37.9016 3.70222C38.5977 4.04226 39.2053 4.53943 39.6764 5.15449L41.4719 7.49858C41.8442 7.9846 42.1241 8.53486 42.2976 9.12197L43.2545 12.3603C43.3303 12.6168 43.3854 12.879 43.4193 13.1443L43.9138 17.0189C43.971 17.467 43.9672 17.9208 43.9025 18.3679L43.3684 22.0592L42.0364 27.52C41.9423 27.9057 41.8026 28.2788 41.6203 28.6314L39.2118 33.29C39.0445 33.6135 38.8423 33.9179 38.6089 34.1975L35.4173 38.0216C34.8344 38.72 34.0719 39.2462 33.2121 39.5434L27.0803 41.663C26.4371 41.8853 25.7552 41.974 25.0764 41.9236L14.6011 41.1454C13.9761 41.099 13.3653 40.9354 12.8007 40.6633L8.77408 38.7227C8.37673 38.5312 8.00647 38.2879 7.67294 37.9993L4.03664 34.8524C3.54898 34.4304 3.14758 33.918 2.85454 33.3435L0.545964 28.8176C0.187097 28.114 0 27.3355 0 26.5457V21.5444C0 21.3066 0.0169711 21.0691 0.050784 20.8336L0.833623 15.3829C0.931781 14.6995 1.17043 14.0438 1.53452 13.4571L6.44653 5.54253C6.98136 4.68077 7.76562 4.00204 8.69522 3.59642L14.7843 0.939498C15.3101 0.710051 15.8715 0.572818 16.4439 0.533805Z" fill="#38B0D6"/>
<path d="M26.0729 29.3255C25.91 28.4457 25.5077 27.6736 24.7946 27.1523C24.1093 26.6512 23.3468 26.2124 22.5072 26.0898C21.9582 26.0096 21.3123 26.0837 20.7743 26.2046C20.2905 26.3133 19.9738 26.4778 19.6064 26.816C19.037 27.3402 18.5186 27.9293 18.0759 28.5726C17.9206 28.7982 17.7714 29.0153 17.6785 29.2772C17.6261 29.425 17.5403 29.8823 17.5329 29.7248" stroke="black" stroke-linecap="round"/>
<path d="M15.9309 9.47876V13.0561" stroke="#020202" stroke-width="1.5" stroke-linecap="round"/>
<path d="M28.0691 9.47876V13.0775" stroke="black" stroke-width="1.5" stroke-linecap="round"/>
<path d="M14.3798 17.4123C13.9413 18.2056 13.4521 18.9533 13.0174 19.7396C12.4855 20.7017 12.5859 20.8731 12.7759 21.579C12.9338 22.1656 13.8451 21.7432 14.1854 21.1942C14.6108 20.5079 14.5525 20.1299 14.4612 19.5291C14.4007 19.131 14.4958 18.3684 14.5479 17.9392C14.5826 17.6531 14.5971 17.4908 14.4223 17.8919C14.237 18.3173 14.045 18.7558 13.8664 19.1795C13.608 19.7926 13.104 21.6258 13.4276 21.0404C13.6801 20.5837 13.5544 20.0032 13.8435 19.4802" stroke="#8ADCE7" stroke-width="3" stroke-linecap="round"/>
</svg>
